<?xml version="1.0" encoding="UTF-8" standalone="no"?><svg xmlns="http://www.w3.org/2000/svg" xmlns:xlink="http://www.w3.org/1999/xlink" contentScriptType="application/ecmascript" contentStyleType="text/css" height="338px" preserveAspectRatio="none" style="width:379px;height:338px;background:#FFFFFF;" version="1.1" viewBox="0 0 379 338" width="379px" zoomAndPan="magnify"><defs><filter height="300%" id="f1fihibtm36irw" width="300%" x="-1" y="-1"><feGaussianBlur result="blurOut" stdDeviation="2.0"/><feColorMatrix in="blurOut" result="blurOut2" type="matrix" values="0 0 0 0 0 0 0 0 0 0 0 0 0 0 0 0 0 0 .4 0"/><feOffset dx="4.0" dy="4.0" in="blurOut2" result="blurOut3"/><feBlend in="SourceGraphic" in2="blurOut3" mode="normal"/></filter></defs><g><line style="stroke:#A80036;stroke-width:1.0;stroke-dasharray:5.0,5.0;" x1="25" x2="25" y1="88.2969" y2="253.9609"/><line style="stroke:#A80036;stroke-width:1.0;stroke-dasharray:5.0,5.0;" x1="130.5" x2="130.5" y1="88.2969" y2="253.9609"/><line style="stroke:#A80036;stroke-width:1.0;stroke-dasharray:5.0,5.0;" x1="180.5" x2="180.5" y1="88.2969" y2="253.9609"/><line style="stroke:#A80036;stroke-width:1.0;stroke-dasharray:5.0,5.0;" x1="231.5" x2="231.5" y1="88.2969" y2="253.9609"/><line style="stroke:#A80036;stroke-width:1.0;stroke-dasharray:5.0,5.0;" x1="281.5" x2="281.5" y1="88.2969" y2="253.9609"/><line style="stroke:#A80036;stroke-width:1.0;stroke-dasharray:5.0,5.0;" x1="340.5" x2="340.5" y1="88.2969" y2="253.9609"/><text fill="#000000" font-family="sans-serif" font-size="14" lengthAdjust="spacing" textLength="35" x="5" y="84.9951">Foo1</text><ellipse cx="25.5" cy="15" fill="#FEFECE" filter="url(#f1fihibtm36irw)" rx="8" ry="8" style="stroke:#A80036;stroke-width:2.0;"/><path d="M25.5,23 L25.5,50 M12.5,31 L38.5,31 M25.5,50 L12.5,65 M25.5,50 L38.5,65 " fill="none" filter="url(#f1fihibtm36irw)" style="stroke:#A80036;stroke-width:2.0;"/><text fill="#000000" font-family="sans-serif" font-size="14" lengthAdjust="spacing" textLength="35" x="5" y="265.9561">Foo1</text><ellipse cx="25.5" cy="279.2578" fill="#FEFECE" filter="url(#f1fihibtm36irw)" rx="8" ry="8" style="stroke:#A80036;stroke-width:2.0;"/><path d="M25.5,287.2578 L25.5,314.2578 M12.5,295.2578 L38.5,295.2578 M25.5,314.2578 L12.5,329.2578 M25.5,314.2578 L38.5,329.2578 " fill="none" filter="url(#f1fihibtm36irw)" style="stroke:#A80036;stroke-width:2.0;"/><text fill="#000000" font-family="sans-serif" font-size="14" lengthAdjust="spacing" textLength="34" x="110.5" y="84.9951">Foo2</text><ellipse cx="130.5" cy="15" fill="#FEFECE" filter="url(#f1fihibtm36irw)" rx="8" ry="8" style="stroke:#A80036;stroke-width:2.0;"/><path d="M130.5,23 L130.5,50 M117.5,31 L143.5,31 M130.5,50 L117.5,65 M130.5,50 L143.5,65 " fill="none" filter="url(#f1fihibtm36irw)" style="stroke:#A80036;stroke-width:2.0;"/><text fill="#000000" font-family="sans-serif" font-size="14" lengthAdjust="spacing" textLength="34" x="110.5" y="265.9561">Foo2</text><ellipse cx="130.5" cy="279.2578" fill="#FEFECE" filter="url(#f1fihibtm36irw)" rx="8" ry="8" style="stroke:#A80036;stroke-width:2.0;"/><path d="M130.5,287.2578 L130.5,314.2578 M117.5,295.2578 L143.5,295.2578 M130.5,314.2578 L117.5,329.2578 M130.5,314.2578 L143.5,329.2578 " fill="none" filter="url(#f1fihibtm36irw)" style="stroke:#A80036;stroke-width:2.0;"/><text fill="#000000" font-family="sans-serif" font-size="14" lengthAdjust="spacing" textLength="35" x="160.5" y="84.9951">Foo3</text><ellipse cx="181" cy="56" fill="#FEFECE" filter="url(#f1fihibtm36irw)" rx="12" ry="12" style="stroke:#A80036;stroke-width:2.0;"/><polygon fill="#A80036" points="177,44,183,39,181,44,183,49,177,44" style="stroke:#A80036;stroke-width:1.0;"/><text fill="#000000" font-family="sans-serif" font-size="14" lengthAdjust="spacing" textLength="35" x="160.5" y="265.9561">Foo3</text><ellipse cx="181" cy="285.2578" fill="#FEFECE" filter="url(#f1fihibtm36irw)" rx="12" ry="12" style="stroke:#A80036;stroke-width:2.0;"/><polygon fill="#A80036" points="177,273.2578,183,268.2578,181,273.2578,183,278.2578,177,273.2578" style="stroke:#A80036;stroke-width:1.0;"/><text fill="#000000" font-family="sans-serif" font-size="14" lengthAdjust="spacing" textLength="34" x="211.5" y="84.9951">Foo4</text><ellipse cx="231.5" cy="56" fill="#FEFECE" filter="url(#f1fihibtm36irw)" rx="12" ry="12" style="stroke:#A80036;stroke-width:2.0;"/><line style="stroke:#A80036;stroke-width:2.0;" x1="219.5" x2="243.5" y1="70" y2="70"/><text fill="#000000" font-family="sans-serif" font-size="14" lengthAdjust="spacing" textLength="34" x="211.5" y="265.9561">Foo4</text><ellipse cx="231.5" cy="285.2578" fill="#FEFECE" filter="url(#f1fihibtm36irw)" rx="12" ry="12" style="stroke:#A80036;stroke-width:2.0;"/><line style="stroke:#A80036;stroke-width:2.0;" x1="219.5" x2="243.5" y1="299.2578" y2="299.2578"/><text fill="#000000" font-family="sans-serif" font-size="14" lengthAdjust="spacing" textLength="35" x="261.5" y="84.9951">Foo5</text><path d="M264,36 C264,26 282,26 282,26 C282,26 300,26 300,36 L300,62 C300,72 282,72 282,72 C282,72 264,72 264,62 L264,36 " fill="#FEFECE" filter="url(#f1fihibtm36irw)" style="stroke:#000000;stroke-width:1.5;"/><path d="M264,36 C264,46 282,46 282,46 C282,46 300,46 300,36 " fill="none" style="stroke:#000000;stroke-width:1.5;"/><text fill="#000000" font-family="sans-serif" font-size="14" lengthAdjust="spacing" textLength="35" x="261.5" y="265.9561">Foo5</text><path d="M264,279.2578 C264,269.2578 282,269.2578 282,269.2578 C282,269.2578 300,269.2578 300,279.2578 L300,305.2578 C300,315.2578 282,315.2578 282,315.2578 C282,315.2578 264,315.2578 264,305.2578 L264,279.2578 " fill="#FEFECE" filter="url(#f1fihibtm36irw)" style="stroke:#000000;stroke-width:1.5;"/><path d="M264,279.2578 C264,289.2578 282,289.2578 282,289.2578 C282,289.2578 300,289.2578 300,279.2578 " fill="none" style="stroke:#000000;stroke-width:1.5;"/><rect fill="#FEFECE" filter="url(#f1fihibtm36irw)" height="30.2969" style="stroke:#A80036;stroke-width:1.5;" width="49" x="316.5" y="49"/><rect fill="#FEFECE" filter="url(#f1fihibtm36irw)" height="30.2969" style="stroke:#A80036;stroke-width:1.5;" width="49" x="312.5" y="53"/><text fill="#000000" font-family="sans-serif" font-size="14" lengthAdjust="spacing" textLength="35" x="319.5" y="72.9951">Foo6</text><rect fill="#FEFECE" filter="url(#f1fihibtm36irw)" height="30.2969" style="stroke:#A80036;stroke-width:1.5;" width="49" x="316.5" y="252.9609"/><rect fill="#FEFECE" filter="url(#f1fihibtm36irw)" height="30.2969" style="stroke:#A80036;stroke-width:1.5;" width="49" x="312.5" y="256.9609"/><text fill="#000000" font-family="sans-serif" font-size="14" lengthAdjust="spacing" textLength="35" x="319.5" y="276.9561">Foo6</text><polygon fill="#FF0000" points="118.5,115.4297,128.5,119.4297,118.5,123.4297,122.5,119.4297" style="stroke:#FF0000;stroke-width:1.0;"/><line style="stroke:#FF0000;stroke-width:1.0;" x1="25.5" x2="124.5" y1="119.4297" y2="119.4297"/><text fill="#000000" font-family="sans-serif" font-size="13" lengthAdjust="spacing" textLength="81" x="32.5" y="114.3638">To boundary</text><polygon fill="#A80036" points="169,144.5625,179,148.5625,169,152.5625,173,148.5625" style="stroke:#A80036;stroke-width:1.0;"/><line style="stroke:#A80036;stroke-width:1.0;" x1="25.5" x2="175" y1="148.5625" y2="148.5625"/><text fill="#000000" font-family="sans-serif" font-size="13" lengthAdjust="spacing" textLength="64" x="32.5" y="143.4966">To control</text><polygon fill="#A80036" points="219.5,173.6953,229.5,177.6953,219.5,181.6953,223.5,177.6953" style="stroke:#A80036;stroke-width:1.0;"/><line style="stroke:#A80036;stroke-width:1.0;" x1="25.5" x2="225.5" y1="177.6953" y2="177.6953"/><text fill="#000000" font-family="sans-serif" font-size="13" lengthAdjust="spacing" textLength="57" x="32.5" y="172.6294">To entity</text><polygon fill="#A80036" points="270,202.8281,280,206.8281,270,210.8281,274,206.8281" style="stroke:#A80036;stroke-width:1.0;"/><line style="stroke:#A80036;stroke-width:1.0;" x1="25.5" x2="276" y1="206.8281" y2="206.8281"/><text fill="#000000" font-family="sans-serif" font-size="13" lengthAdjust="spacing" textLength="80" x="32.5" y="201.7622">To database</text><polygon fill="#A80036" points="329,231.9609,339,235.9609,329,239.9609,333,235.9609" style="stroke:#A80036;stroke-width:1.0;"/><line style="stroke:#A80036;stroke-width:1.0;" x1="25.5" x2="335" y1="235.9609" y2="235.9609"/><text fill="#000000" font-family="sans-serif" font-size="13" lengthAdjust="spacing" textLength="87" x="32.5" y="230.895">To collections</text><!--MD5=[67d1a88bbc238e55dbc7996fbd12639e]
@startuml
actor Foo1
actor Foo2
boundary Foo2
control Foo3
entity Foo4
database Foo5
collections Foo6
Foo1 -[#red]> Foo2 : To boundary
Foo1 -> Foo3 : To control
Foo1 -> Foo4 : To entity
Foo1 -> Foo5 : To database
Foo1 -> Foo6 : To collections
@enduml

PlantUML version 1.2021.13beta3(Unknown compile time)
(GPL source distribution)
Java Runtime: Java(TM) SE Runtime Environment
JVM: Java HotSpot(TM) 64-Bit Server VM
Default Encoding: UTF-8
Language: en
Country: US
--></g></svg>