<?xml version="1.0" encoding="UTF-8" standalone="no"?><svg xmlns="http://www.w3.org/2000/svg" xmlns:xlink="http://www.w3.org/1999/xlink" contentScriptType="application/ecmascript" contentStyleType="text/css" height="134px" preserveAspectRatio="none" style="width:497px;height:134px;background:#FFFFFF;" version="1.1" viewBox="0 0 497 134" width="497px" zoomAndPan="magnify"><defs><filter height="300%" id="fii0c0rz3wnm5" width="300%" x="-1" y="-1"><feGaussianBlur result="blurOut" stdDeviation="2.0"/><feColorMatrix in="blurOut" result="blurOut2" type="matrix" values="0 0 0 0 0 0 0 0 0 0 0 0 0 0 0 0 0 0 .4 0"/><feOffset dx="4.0" dy="4.0" in="blurOut2" result="blurOut3"/><feBlend in="SourceGraphic" in2="blurOut3" mode="normal"/></filter></defs><g><!--MD5=[4a65e84059005d12693a083370a06717]
entity client--><ellipse cx="344" cy="58" fill="#FEFECE" filter="url(#fii0c0rz3wnm5)" rx="8" ry="8" style="stroke:#A80036;stroke-width:1.5;"/><path d="M344,66 L344,93 M331,74 L357,74 M344,93 L331,108 M344,93 L357,108 " fill="none" filter="url(#fii0c0rz3wnm5)" style="stroke:#A80036;stroke-width:1.5;"/><text fill="#000000" font-family="sans-serif" font-size="14" lengthAdjust="spacing" textLength="41" x="323.5" y="126.4951">client</text><!--MD5=[4541fb81c80c07473fe4b07432ef0971]
entity app--><polygon fill="#FEFECE" filter="url(#fii0c0rz3wnm5)" points="220,76,230,66,288,66,288,102.2969,278,112.2969,220,112.2969,220,76" style="stroke:#000000;stroke-width:1.5;"/><line style="stroke:#000000;stroke-width:1.5;" x1="278" x2="288" y1="76" y2="66"/><line style="stroke:#000000;stroke-width:1.5;" x1="220" x2="278" y1="76" y2="76"/><line style="stroke:#000000;stroke-width:1.5;" x1="278" x2="278" y1="76" y2="112.2969"/><text fill="#000000" font-family="sans-serif" font-size="14" lengthAdjust="spacing" textLength="28" x="235" y="98.9951">app</text><!--MD5=[1b38d24276ac300d5891813f7c1b81b0]
entity car--><polygon fill="#FEFECE" filter="url(#fii0c0rz3wnm5)" points="16,76,26,66,78,66,78,102.2969,68,112.2969,16,112.2969,16,76" style="stroke:#000000;stroke-width:1.5;"/><line style="stroke:#000000;stroke-width:1.5;" x1="68" x2="78" y1="76" y2="66"/><line style="stroke:#000000;stroke-width:1.5;" x1="16" x2="68" y1="76" y2="76"/><line style="stroke:#000000;stroke-width:1.5;" x1="68" x2="68" y1="76" y2="112.2969"/><text fill="#000000" font-family="sans-serif" font-size="14" lengthAdjust="spacing" textLength="22" x="31" y="98.9951">car</text><!--MD5=[8182975a230991012a59de576491698e]
entity car1--><polygon fill="#FEFECE" filter="url(#fii0c0rz3wnm5)" points="113.5,76,123.5,66,184.5,66,184.5,102.2969,174.5,112.2969,113.5,112.2969,113.5,76" style="stroke:#000000;stroke-width:1.5;"/><line style="stroke:#000000;stroke-width:1.5;" x1="174.5" x2="184.5" y1="76" y2="66"/><line style="stroke:#000000;stroke-width:1.5;" x1="113.5" x2="174.5" y1="76" y2="76"/><line style="stroke:#000000;stroke-width:1.5;" x1="174.5" x2="174.5" y1="76" y2="112.2969"/><text fill="#000000" font-family="sans-serif" font-size="14" lengthAdjust="spacing" textLength="31" x="128.5" y="98.9951">car1</text><!--MD5=[49e38d7785caaedd44e8aacba64c8ad1]
entity tshirt--><polygon fill="#FEFECE" filter="url(#fii0c0rz3wnm5)" points="400,76,410,66,480,66,480,102.2969,470,112.2969,400,112.2969,400,76" style="stroke:#000000;stroke-width:1.5;"/><line style="stroke:#000000;stroke-width:1.5;" x1="470" x2="480" y1="76" y2="66"/><line style="stroke:#000000;stroke-width:1.5;" x1="400" x2="470" y1="76" y2="76"/><line style="stroke:#000000;stroke-width:1.5;" x1="470" x2="470" y1="76" y2="112.2969"/><text fill="#000000" font-family="sans-serif" font-size="14" lengthAdjust="spacing" textLength="40" x="415" y="98.9951">tshirt</text><!--MD5=[ca6127d2c2340ea784bf2f5715a0e7fb]
link car to app--><path d="M61.2736,65.8361 C72.9931,49.2046 91.2533,28.098 113.5,18.5 C142.474,6 155.39,6.32 184.5,18.5 C205.369,27.232 223.151,45.622 235.504,61.4302 " fill="none" id="car-to-app" style="stroke:#A80036;stroke-width:1.0;"/><polygon fill="#A80036" points="238.842,65.8103,236.5686,56.2274,235.8115,61.8334,230.2055,61.0763,238.842,65.8103" style="stroke:#A80036;stroke-width:1.0;"/><!--MD5=[05b842cfd8375b3ee3b0879e17fcc8de]
link car1 to app--><path d="M184.684,89 C194.675,89 204.667,89 214.658,89 " fill="none" id="car1-to-app" style="stroke:#A80036;stroke-width:1.0;"/><polygon fill="#A80036" points="219.883,89,210.883,85,214.883,89,210.883,93,219.883,89" style="stroke:#A80036;stroke-width:1.0;"/><!--MD5=[9cecf95ca18500caa5a398892473e215]
link app to client--><path d="M288.102,89 C298.142,89 308.183,89 318.224,89 " fill="none" id="app-to-client" style="stroke:#A80036;stroke-width:1.0;"/><polygon fill="#A80036" points="323.475,89,314.475,85,318.475,89,314.475,93,323.475,89" style="stroke:#A80036;stroke-width:1.0;"/><!--MD5=[8cd7f1bb76f916277802e9876bcac022]
link client to tshirt--><path d="M364.625,89 C374.654,89 384.683,89 394.712,89 " fill="none" id="client-to-tshirt" style="stroke:#A80036;stroke-width:1.0;"/><polygon fill="#A80036" points="399.957,89,390.957,85,394.957,89,390.957,93,399.957,89" style="stroke:#A80036;stroke-width:1.0;"/><!--MD5=[3446e8afe76d8bb455a35aefbee94230]
@startuml
actor client
node app
node car
node car1
node tshirt


car -> app
car1 -> app
app -> client
client -> tshirt
@enduml

PlantUML version 1.2021.13beta3(Unknown compile time)
(GPL source distribution)
Java Runtime: Java(TM) SE Runtime Environment
JVM: Java HotSpot(TM) 64-Bit Server VM
Default Encoding: UTF-8
Language: en
Country: US
--></g></svg>