<?xml version="1.0" encoding="UTF-8" standalone="no"?><svg xmlns="http://www.w3.org/2000/svg" xmlns:xlink="http://www.w3.org/1999/xlink" contentScriptType="application/ecmascript" contentStyleType="text/css" height="136px" preserveAspectRatio="none" style="width:503px;height:136px;background:#FFFFFF;" version="1.1" viewBox="0 0 503 136" width="503px" zoomAndPan="magnify"><defs><filter height="300%" id="fr1ijbxmxovh6" width="300%" x="-1" y="-1"><feGaussianBlur result="blurOut" stdDeviation="2.0"/><feColorMatrix in="blurOut" result="blurOut2" type="matrix" values="0 0 0 0 0 0 0 0 0 0 0 0 0 0 0 0 0 0 .4 0"/><feOffset dx="4.0" dy="4.0" in="blurOut2" result="blurOut3"/><feBlend in="SourceGraphic" in2="blurOut3" mode="normal"/></filter></defs><g><!--MD5=[4a65e84059005d12693a083370a06717]
entity client--><ellipse cx="350" cy="59.056" fill="#FEFECE" filter="url(#fr1ijbxmxovh6)" rx="8" ry="8" style="stroke:#A80036;stroke-width:1.5;"/><path d="M350,67.056 L350,94.056 M337,75.056 L363,75.056 M350,94.056 L337,109.056 M350,94.056 L363,109.056 " fill="none" filter="url(#fr1ijbxmxovh6)" style="stroke:#A80036;stroke-width:1.5;"/><text fill="#000000" font-family="sans-serif" font-size="14" lengthAdjust="spacing" textLength="41" x="329.5" y="127.5511">client</text><!--MD5=[4541fb81c80c07473fe4b07432ef0971]
entity app--><polygon fill="#FEFECE" filter="url(#fr1ijbxmxovh6)" points="226,77.056,236,67.056,294,67.056,294,103.3529,284,113.3529,226,113.3529,226,77.056" style="stroke:#000000;stroke-width:1.5;"/><line style="stroke:#000000;stroke-width:1.5;" x1="284" x2="294" y1="77.056" y2="67.056"/><line style="stroke:#000000;stroke-width:1.5;" x1="226" x2="284" y1="77.056" y2="77.056"/><line style="stroke:#000000;stroke-width:1.5;" x1="284" x2="284" y1="77.056" y2="113.3529"/><text fill="#000000" font-family="sans-serif" font-size="14" lengthAdjust="spacing" textLength="28" x="241" y="100.0511">app</text><!--MD5=[019f6774f902f72c488c9dcee70d4d6c]
entity app1--><polygon fill="#FEFECE" filter="url(#fr1ijbxmxovh6)" points="113.5,77.056,123.5,67.056,190.5,67.056,190.5,103.3529,180.5,113.3529,113.5,113.3529,113.5,77.056" style="stroke:#000000;stroke-width:1.5;"/><line style="stroke:#000000;stroke-width:1.5;" x1="180.5" x2="190.5" y1="77.056" y2="67.056"/><line style="stroke:#000000;stroke-width:1.5;" x1="113.5" x2="180.5" y1="77.056" y2="77.056"/><line style="stroke:#000000;stroke-width:1.5;" x1="180.5" x2="180.5" y1="77.056" y2="113.3529"/><text fill="#000000" font-family="sans-serif" font-size="14" lengthAdjust="spacing" textLength="37" x="128.5" y="100.0511">app1</text><!--MD5=[1b38d24276ac300d5891813f7c1b81b0]
entity car--><polygon fill="#FEFECE" filter="url(#fr1ijbxmxovh6)" points="16,77.056,26,67.056,78,67.056,78,103.3529,68,113.3529,16,113.3529,16,77.056" style="stroke:#000000;stroke-width:1.5;"/><line style="stroke:#000000;stroke-width:1.5;" x1="68" x2="78" y1="77.056" y2="67.056"/><line style="stroke:#000000;stroke-width:1.5;" x1="16" x2="68" y1="77.056" y2="77.056"/><line style="stroke:#000000;stroke-width:1.5;" x1="68" x2="68" y1="77.056" y2="113.3529"/><text fill="#000000" font-family="sans-serif" font-size="14" lengthAdjust="spacing" textLength="22" x="31" y="100.0511">car</text><!--MD5=[49e38d7785caaedd44e8aacba64c8ad1]
entity tshirt--><polygon fill="#FEFECE" filter="url(#fr1ijbxmxovh6)" points="406,77.056,416,67.056,486,67.056,486,103.3529,476,113.3529,406,113.3529,406,77.056" style="stroke:#000000;stroke-width:1.5;"/><line style="stroke:#000000;stroke-width:1.5;" x1="476" x2="486" y1="77.056" y2="67.056"/><line style="stroke:#000000;stroke-width:1.5;" x1="406" x2="476" y1="77.056" y2="77.056"/><line style="stroke:#000000;stroke-width:1.5;" x1="476" x2="476" y1="77.056" y2="113.3529"/><text fill="#000000" font-family="sans-serif" font-size="14" lengthAdjust="spacing" textLength="40" x="421" y="100.0511">tshirt</text><!--MD5=[ca6127d2c2340ea784bf2f5715a0e7fb]
link car to app--><path d="M61.2736,66.8921 C72.9931,50.2606 91.2533,29.154 113.5,19.556 C144.923,6 158.93,6.347 190.5,19.556 C211.369,28.288 229.151,46.678 241.504,62.4862 " fill="none" id="car-to-app" style="stroke:#A80036;stroke-width:1.0;"/><polygon fill="#A80036" points="244.842,66.8663,242.5686,57.2834,241.8115,62.8894,236.2055,62.1323,244.842,66.8663" style="stroke:#A80036;stroke-width:1.0;"/><!--MD5=[e2936f569cf9d569e10f5c3c2bbfbd7e]
link car to app1--><path d="M78.1719,90.056 C88.1589,90.056 98.146,90.056 108.133,90.056 " fill="none" id="car-to-app1" style="stroke:#A80036;stroke-width:1.0;"/><polygon fill="#A80036" points="113.3556,90.056,104.3556,86.056,108.3556,90.056,104.3556,94.056,113.3556,90.056" style="stroke:#A80036;stroke-width:1.0;"/><!--MD5=[9cecf95ca18500caa5a398892473e215]
link app to client--><path d="M294.102,90.056 C304.142,90.056 314.183,90.056 324.224,90.056 " fill="none" id="app-to-client" style="stroke:#A80036;stroke-width:1.0;"/><polygon fill="#A80036" points="329.475,90.056,320.475,86.056,324.475,90.056,320.475,94.056,329.475,90.056" style="stroke:#A80036;stroke-width:1.0;"/><!--MD5=[dbff25c0d0f15547977c56c03ad8b175]
link app1 to client--><path d="M168.622,66.8276 C182.082,50.1623 202.676,29.041 226.5,19.556 C254.579,8.377 267.312,6.357 294.5,19.556 C307.23,25.736 317.914,36.4075 326.402,47.6048 " fill="none" id="app1-to-client" style="stroke:#A80036;stroke-width:1.0;"/><polygon fill="#A80036" points="329.429,51.7465,327.3481,42.12,326.4788,47.7096,320.8891,46.8403,329.429,51.7465" style="stroke:#A80036;stroke-width:1.0;"/><!--MD5=[8cd7f1bb76f916277802e9876bcac022]
link client to tshirt--><path d="M370.625,90.056 C380.654,90.056 390.683,90.056 400.712,90.056 " fill="none" id="client-to-tshirt" style="stroke:#A80036;stroke-width:1.0;"/><polygon fill="#A80036" points="405.957,90.056,396.957,86.056,400.957,90.056,396.957,94.056,405.957,90.056" style="stroke:#A80036;stroke-width:1.0;"/><!--MD5=[18e1ec3aa6ea3c76135e5f3471193bc4]
@startuml
actor client
node app
node app1
node car
node tshirt

car -> app
car -> app1
app -> client
app1 -> client
client -> tshirt
@enduml

PlantUML version 1.2021.13beta3(Unknown compile time)
(GPL source distribution)
Java Runtime: Java(TM) SE Runtime Environment
JVM: Java HotSpot(TM) 64-Bit Server VM
Default Encoding: UTF-8
Language: en
Country: US
--></g></svg>