<?xml version="1.0" encoding="UTF-8" standalone="no"?><svg xmlns="http://www.w3.org/2000/svg" xmlns:xlink="http://www.w3.org/1999/xlink" contentScriptType="application/ecmascript" contentStyleType="text/css" height="90px" preserveAspectRatio="none" style="width:370px;height:90px;" version="1.1" viewBox="0 0 370 90" width="370px" zoomAndPan="magnify"><defs><filter height="300%" id="fr4s8tvbzf8ei" width="300%" x="-1" y="-1"><feGaussianBlur result="blurOut" stdDeviation="2.0"/><feColorMatrix in="blurOut" result="blurOut2" type="matrix" values="0 0 0 0 0 0 0 0 0 0 0 0 0 0 0 0 0 0 .4 0"/><feOffset dx="4.0" dy="4.0" in="blurOut2" result="blurOut3"/><feBlend in="SourceGraphic" in2="blurOut3" mode="normal"/></filter></defs><g><!--MD5=[4a65e84059005d12693a083370a06717]
entity client--><ellipse cx="226.5" cy="14" fill="#FEFECE" filter="url(#fr4s8tvbzf8ei)" rx="8" ry="8" style="stroke:#A80036;stroke-width:1.5;"/><path d="M226.5,22 L226.5,49 M213.5,30 L239.5,30 M226.5,49 L213.5,64 M226.5,49 L239.5,64 " fill="none" filter="url(#fr4s8tvbzf8ei)" style="stroke:#A80036;stroke-width:1.5;"/><text fill="#000000" font-family="sans-serif" font-size="14" lengthAdjust="spacingAndGlyphs" textLength="36" x="208.5" y="82.4951">client</text><!--MD5=[4541fb81c80c07473fe4b07432ef0971]
entity app--><polygon fill="#FEFECE" filter="url(#fr4s8tvbzf8ei)" points="110,32,120,22,173,22,173,58.2969,163,68.2969,110,68.2969,110,32" style="stroke:#000000;stroke-width:1.5;"/><line style="stroke:#000000;stroke-width:1.5;" x1="163" x2="173" y1="32" y2="22"/><line style="stroke:#000000;stroke-width:1.5;" x1="110" x2="163" y1="32" y2="32"/><line style="stroke:#000000;stroke-width:1.5;" x1="163" x2="163" y1="32" y2="68.2969"/><text fill="#000000" font-family="sans-serif" font-size="14" lengthAdjust="spacingAndGlyphs" textLength="23" x="125" y="54.9951">app</text><!--MD5=[1b38d24276ac300d5891813f7c1b81b0]
entity car--><polygon fill="#FEFECE" filter="url(#fr4s8tvbzf8ei)" points="16,32,26,22,75,22,75,58.2969,65,68.2969,16,68.2969,16,32" style="stroke:#000000;stroke-width:1.5;"/><line style="stroke:#000000;stroke-width:1.5;" x1="65" x2="75" y1="32" y2="22"/><line style="stroke:#000000;stroke-width:1.5;" x1="16" x2="65" y1="32" y2="32"/><line style="stroke:#000000;stroke-width:1.5;" x1="65" x2="65" y1="32" y2="68.2969"/><text fill="#000000" font-family="sans-serif" font-size="14" lengthAdjust="spacingAndGlyphs" textLength="19" x="31" y="54.9951">car</text><!--MD5=[49e38d7785caaedd44e8aacba64c8ad1]
entity tshirt--><polygon fill="#FEFECE" filter="url(#fr4s8tvbzf8ei)" points="279.5,32,289.5,22,353.5,22,353.5,58.2969,343.5,68.2969,279.5,68.2969,279.5,32" style="stroke:#000000;stroke-width:1.5;"/><line style="stroke:#000000;stroke-width:1.5;" x1="343.5" x2="353.5" y1="32" y2="22"/><line style="stroke:#000000;stroke-width:1.5;" x1="279.5" x2="343.5" y1="32" y2="32"/><line style="stroke:#000000;stroke-width:1.5;" x1="343.5" x2="343.5" y1="32" y2="68.2969"/><text fill="#000000" font-family="sans-serif" font-size="14" lengthAdjust="spacingAndGlyphs" textLength="34" x="294.5" y="54.9951">tshirt</text><!--MD5=[ca6127d2c2340ea784bf2f5715a0e7fb]
link car to app--><path d="M75.12,45 C84.99,45 94.85,45 104.71,45 " fill="none" id="car-to-app" style="stroke:#A80036;stroke-width:1.0;"/><polygon fill="#A80036" points="109.87,45,100.87,41,104.87,45,100.87,49,109.87,45" style="stroke:#A80036;stroke-width:1.0;"/><!--MD5=[9cecf95ca18500caa5a398892473e215]
link app to client--><path d="M173.04,45 C183,45 192.96,45 202.92,45 " fill="none" id="app-to-client" style="stroke:#A80036;stroke-width:1.0;"/><polygon fill="#A80036" points="208.12,45,199.12,41,203.12,45,199.12,49,208.12,45" style="stroke:#A80036;stroke-width:1.0;"/><!--MD5=[8cd7f1bb76f916277802e9876bcac022]
link client to tshirt--><path d="M244.78,45 C254.56,45 264.34,45 274.12,45 " fill="none" id="client-to-tshirt" style="stroke:#A80036;stroke-width:1.0;"/><polygon fill="#A80036" points="279.24,45,270.24,41,274.24,45,270.24,49,279.24,45" style="stroke:#A80036;stroke-width:1.0;"/><!--MD5=[62f8aa821aa72f4a1daa93785d26dfc5]
@startuml
actor client
node app
node car
node tshirt

car -> app
app -> client
client -> tshirt
@enduml

PlantUML version 1.2020.23(Sun Dec 13 19:14:58 GMT 2020)
(GPL source distribution)
Java Runtime: OpenJDK Runtime Environment
JVM: OpenJDK 64-Bit Server VM
Default Encoding: UTF-8
Language: en
Country: US
--></g></svg>