<?xml version="1.0" encoding="UTF-8" standalone="no"?><svg xmlns="http://www.w3.org/2000/svg" xmlns:xlink="http://www.w3.org/1999/xlink" contentScriptType="application/ecmascript" contentStyleType="text/css" height="90px" preserveAspectRatio="none" style="width:390px;height:90px;background:#FFFFFF;" version="1.1" viewBox="0 0 390 90" width="390px" zoomAndPan="magnify"><defs><filter height="300%" id="fr4s8tvbzf8ei" width="300%" x="-1" y="-1"><feGaussianBlur result="blurOut" stdDeviation="2.0"/><feColorMatrix in="blurOut" result="blurOut2" type="matrix" values="0 0 0 0 0 0 0 0 0 0 0 0 0 0 0 0 0 0 .4 0"/><feOffset dx="4.0" dy="4.0" in="blurOut2" result="blurOut3"/><feBlend in="SourceGraphic" in2="blurOut3" mode="normal"/></filter></defs><g><!--MD5=[4a65e84059005d12693a083370a06717]
entity client--><ellipse cx="237" cy="14" fill="#FEFECE" filter="url(#fr4s8tvbzf8ei)" rx="8" ry="8" style="stroke:#A80036;stroke-width:1.5;"/><path d="M237,22 L237,49 M224,30 L250,30 M237,49 L224,64 M237,49 L250,64 " fill="none" filter="url(#fr4s8tvbzf8ei)" style="stroke:#A80036;stroke-width:1.5;"/><text fill="#000000" font-family="sans-serif" font-size="14" lengthAdjust="spacing" textLength="41" x="216.5" y="82.4951">client</text><!--MD5=[4541fb81c80c07473fe4b07432ef0971]
entity app--><polygon fill="#FEFECE" filter="url(#fr4s8tvbzf8ei)" points="113,32,123,22,181,22,181,58.2969,171,68.2969,113,68.2969,113,32" style="stroke:#000000;stroke-width:1.5;"/><line style="stroke:#000000;stroke-width:1.5;" x1="171" x2="181" y1="32" y2="22"/><line style="stroke:#000000;stroke-width:1.5;" x1="113" x2="171" y1="32" y2="32"/><line style="stroke:#000000;stroke-width:1.5;" x1="171" x2="171" y1="32" y2="68.2969"/><text fill="#000000" font-family="sans-serif" font-size="14" lengthAdjust="spacing" textLength="28" x="128" y="54.9951">app</text><!--MD5=[1b38d24276ac300d5891813f7c1b81b0]
entity car--><polygon fill="#FEFECE" filter="url(#fr4s8tvbzf8ei)" points="16,32,26,22,78,22,78,58.2969,68,68.2969,16,68.2969,16,32" style="stroke:#000000;stroke-width:1.5;"/><line style="stroke:#000000;stroke-width:1.5;" x1="68" x2="78" y1="32" y2="22"/><line style="stroke:#000000;stroke-width:1.5;" x1="16" x2="68" y1="32" y2="32"/><line style="stroke:#000000;stroke-width:1.5;" x1="68" x2="68" y1="32" y2="68.2969"/><text fill="#000000" font-family="sans-serif" font-size="14" lengthAdjust="spacing" textLength="22" x="31" y="54.9951">car</text><!--MD5=[49e38d7785caaedd44e8aacba64c8ad1]
entity tshirt--><polygon fill="#FEFECE" filter="url(#fr4s8tvbzf8ei)" points="293,32,303,22,373,22,373,58.2969,363,68.2969,293,68.2969,293,32" style="stroke:#000000;stroke-width:1.5;"/><line style="stroke:#000000;stroke-width:1.5;" x1="363" x2="373" y1="32" y2="22"/><line style="stroke:#000000;stroke-width:1.5;" x1="293" x2="363" y1="32" y2="32"/><line style="stroke:#000000;stroke-width:1.5;" x1="363" x2="363" y1="32" y2="68.2969"/><text fill="#000000" font-family="sans-serif" font-size="14" lengthAdjust="spacing" textLength="40" x="308" y="54.9951">tshirt</text><!--MD5=[ca6127d2c2340ea784bf2f5715a0e7fb]
link car to app--><path d="M78.25,45 C88.0837,45 97.9174,45 107.7512,45 " fill="none" id="car-to-app" style="stroke:#A80036;stroke-width:1.0;"/><polygon fill="#A80036" points="112.8936,45,103.8936,41,107.8936,45,103.8936,49,112.8936,45" style="stroke:#A80036;stroke-width:1.0;"/><!--MD5=[9cecf95ca18500caa5a398892473e215]
link app to client--><path d="M181.102,45 C191.142,45 201.183,45 211.224,45 " fill="none" id="app-to-client" style="stroke:#A80036;stroke-width:1.0;"/><polygon fill="#A80036" points="216.475,45,207.475,41,211.475,45,207.475,49,216.475,45" style="stroke:#A80036;stroke-width:1.0;"/><!--MD5=[8cd7f1bb76f916277802e9876bcac022]
link client to tshirt--><path d="M257.625,45 C267.654,45 277.683,45 287.712,45 " fill="none" id="client-to-tshirt" style="stroke:#A80036;stroke-width:1.0;"/><polygon fill="#A80036" points="292.957,45,283.957,41,287.957,45,283.957,49,292.957,45" style="stroke:#A80036;stroke-width:1.0;"/><!--MD5=[622badaf452d0e9b12bf1f41ce6ff0bd]
@startuml
actor client
node app
node car
node tshirt

car -> app
app -> client
client -> tshirt
@enduml

PlantUML version 1.2021.13beta3(Unknown compile time)
(GPL source distribution)
Java Runtime: Java(TM) SE Runtime Environment
JVM: Java HotSpot(TM) 64-Bit Server VM
Default Encoding: UTF-8
Language: en
Country: US
--></g></svg>