<?xml version="1.0" encoding="UTF-8" standalone="no"?><svg xmlns="http://www.w3.org/2000/svg" xmlns:xlink="http://www.w3.org/1999/xlink" contentScriptType="application/ecmascript" contentStyleType="text/css" height="338px" preserveAspectRatio="none" style="width:362px;height:338px;" version="1.1" viewBox="0 0 362 338" width="362px" zoomAndPan="magnify"><defs><filter height="300%" id="f1px1y3lfame8b" width="300%" x="-1" y="-1"><feGaussianBlur result="blurOut" stdDeviation="2.0"/><feColorMatrix in="blurOut" result="blurOut2" type="matrix" values="0 0 0 0 0 0 0 0 0 0 0 0 0 0 0 0 0 0 .4 0"/><feOffset dx="4.0" dy="4.0" in="blurOut2" result="blurOut3"/><feBlend in="SourceGraphic" in2="blurOut3" mode="normal"/></filter></defs><g><line style="stroke:#A80036;stroke-width:1.0;stroke-dasharray:5.0,5.0;" x1="23" x2="23" y1="88.2969" y2="253.9609"/><line style="stroke:#A80036;stroke-width:1.0;stroke-dasharray:5.0,5.0;" x1="123" x2="123" y1="88.2969" y2="253.9609"/><line style="stroke:#A80036;stroke-width:1.0;stroke-dasharray:5.0,5.0;" x1="176" x2="176" y1="88.2969" y2="253.9609"/><line style="stroke:#A80036;stroke-width:1.0;stroke-dasharray:5.0,5.0;" x1="223" x2="223" y1="88.2969" y2="253.9609"/><line style="stroke:#A80036;stroke-width:1.0;stroke-dasharray:5.0,5.0;" x1="270" x2="270" y1="88.2969" y2="253.9609"/><line style="stroke:#A80036;stroke-width:1.0;stroke-dasharray:5.0,5.0;" x1="325" x2="325" y1="88.2969" y2="253.9609"/><text fill="#000000" font-family="sans-serif" font-size="14" lengthAdjust="spacingAndGlyphs" textLength="31" x="5" y="84.9951">Foo1</text><ellipse cx="23.5" cy="15" fill="#FEFECE" filter="url(#f1px1y3lfame8b)" rx="8" ry="8" style="stroke:#A80036;stroke-width:2.0;"/><path d="M23.5,23 L23.5,50 M10.5,31 L36.5,31 M23.5,50 L10.5,65 M23.5,50 L36.5,65 " fill="none" filter="url(#f1px1y3lfame8b)" style="stroke:#A80036;stroke-width:2.0;"/><text fill="#000000" font-family="sans-serif" font-size="14" lengthAdjust="spacingAndGlyphs" textLength="31" x="5" y="265.9561">Foo1</text><ellipse cx="23.5" cy="279.2578" fill="#FEFECE" filter="url(#f1px1y3lfame8b)" rx="8" ry="8" style="stroke:#A80036;stroke-width:2.0;"/><path d="M23.5,287.2578 L23.5,314.2578 M10.5,295.2578 L36.5,295.2578 M23.5,314.2578 L10.5,329.2578 M23.5,314.2578 L36.5,329.2578 " fill="none" filter="url(#f1px1y3lfame8b)" style="stroke:#A80036;stroke-width:2.0;"/><text fill="#000000" font-family="sans-serif" font-size="14" lengthAdjust="spacingAndGlyphs" textLength="31" x="105" y="84.9951">Foo2</text><path d="M103,44 L103,68 M103,56 L120,56 " fill="none" filter="url(#f1px1y3lfame8b)" style="stroke:#A80036;stroke-width:2.0;"/><ellipse cx="132" cy="56" fill="#FEFECE" filter="url(#f1px1y3lfame8b)" rx="12" ry="12" style="stroke:#A80036;stroke-width:2.0;"/><text fill="#000000" font-family="sans-serif" font-size="14" lengthAdjust="spacingAndGlyphs" textLength="31" x="105" y="265.9561">Foo2</text><path d="M103,273.2578 L103,297.2578 M103,285.2578 L120,285.2578 " fill="none" filter="url(#f1px1y3lfame8b)" style="stroke:#A80036;stroke-width:2.0;"/><ellipse cx="132" cy="285.2578" fill="#FEFECE" filter="url(#f1px1y3lfame8b)" rx="12" ry="12" style="stroke:#A80036;stroke-width:2.0;"/><text fill="#000000" font-family="sans-serif" font-size="14" lengthAdjust="spacingAndGlyphs" textLength="31" x="158" y="84.9951">Foo3</text><ellipse cx="176.5" cy="56" fill="#FEFECE" filter="url(#f1px1y3lfame8b)" rx="12" ry="12" style="stroke:#A80036;stroke-width:2.0;"/><polygon fill="#A80036" points="172.5,44,178.5,39,176.5,44,178.5,49,172.5,44" style="stroke:#A80036;stroke-width:1.0;"/><text fill="#000000" font-family="sans-serif" font-size="14" lengthAdjust="spacingAndGlyphs" textLength="31" x="158" y="265.9561">Foo3</text><ellipse cx="176.5" cy="285.2578" fill="#FEFECE" filter="url(#f1px1y3lfame8b)" rx="12" ry="12" style="stroke:#A80036;stroke-width:2.0;"/><polygon fill="#A80036" points="172.5,273.2578,178.5,268.2578,176.5,273.2578,178.5,278.2578,172.5,273.2578" style="stroke:#A80036;stroke-width:1.0;"/><text fill="#000000" font-family="sans-serif" font-size="14" lengthAdjust="spacingAndGlyphs" textLength="31" x="205" y="84.9951">Foo4</text><ellipse cx="223.5" cy="56" fill="#FEFECE" filter="url(#f1px1y3lfame8b)" rx="12" ry="12" style="stroke:#A80036;stroke-width:2.0;"/><line style="stroke:#A80036;stroke-width:2.0;" x1="211.5" x2="235.5" y1="70" y2="70"/><text fill="#000000" font-family="sans-serif" font-size="14" lengthAdjust="spacingAndGlyphs" textLength="31" x="205" y="265.9561">Foo4</text><ellipse cx="223.5" cy="285.2578" fill="#FEFECE" filter="url(#f1px1y3lfame8b)" rx="12" ry="12" style="stroke:#A80036;stroke-width:2.0;"/><line style="stroke:#A80036;stroke-width:2.0;" x1="211.5" x2="235.5" y1="299.2578" y2="299.2578"/><text fill="#000000" font-family="sans-serif" font-size="14" lengthAdjust="spacingAndGlyphs" textLength="31" x="252" y="84.9951">Foo5</text><path d="M252.5,36 C252.5,26 270.5,26 270.5,26 C270.5,26 288.5,26 288.5,36 L288.5,62 C288.5,72 270.5,72 270.5,72 C270.5,72 252.5,72 252.5,62 L252.5,36 " fill="#FEFECE" filter="url(#f1px1y3lfame8b)" style="stroke:#000000;stroke-width:1.5;"/><path d="M252.5,36 C252.5,46 270.5,46 270.5,46 C270.5,46 288.5,46 288.5,36 " fill="none" style="stroke:#000000;stroke-width:1.5;"/><text fill="#000000" font-family="sans-serif" font-size="14" lengthAdjust="spacingAndGlyphs" textLength="31" x="252" y="265.9561">Foo5</text><path d="M252.5,279.2578 C252.5,269.2578 270.5,269.2578 270.5,269.2578 C270.5,269.2578 288.5,269.2578 288.5,279.2578 L288.5,305.2578 C288.5,315.2578 270.5,315.2578 270.5,315.2578 C270.5,315.2578 252.5,315.2578 252.5,305.2578 L252.5,279.2578 " fill="#FEFECE" filter="url(#f1px1y3lfame8b)" style="stroke:#000000;stroke-width:1.5;"/><path d="M252.5,279.2578 C252.5,289.2578 270.5,289.2578 270.5,289.2578 C270.5,289.2578 288.5,289.2578 288.5,279.2578 " fill="none" style="stroke:#000000;stroke-width:1.5;"/><rect fill="#FEFECE" filter="url(#f1px1y3lfame8b)" height="30.2969" style="stroke:#A80036;stroke-width:1.5;" width="45" x="303" y="49"/><rect fill="#FEFECE" filter="url(#f1px1y3lfame8b)" height="30.2969" style="stroke:#A80036;stroke-width:1.5;" width="45" x="299" y="53"/><text fill="#000000" font-family="sans-serif" font-size="14" lengthAdjust="spacingAndGlyphs" textLength="31" x="306" y="72.9951">Foo6</text><rect fill="#FEFECE" filter="url(#f1px1y3lfame8b)" height="30.2969" style="stroke:#A80036;stroke-width:1.5;" width="45" x="303" y="252.9609"/><rect fill="#FEFECE" filter="url(#f1px1y3lfame8b)" height="30.2969" style="stroke:#A80036;stroke-width:1.5;" width="45" x="299" y="256.9609"/><text fill="#000000" font-family="sans-serif" font-size="14" lengthAdjust="spacingAndGlyphs" textLength="31" x="306" y="276.9561">Foo6</text><polygon fill="#FF0000" points="111.5,115.4297,121.5,119.4297,111.5,123.4297,115.5,119.4297" style="stroke:#FF0000;stroke-width:1.0;"/><line style="stroke:#FF0000;stroke-width:1.0;" x1="23.5" x2="117.5" y1="119.4297" y2="119.4297"/><text fill="#000000" font-family="sans-serif" font-size="13" lengthAdjust="spacingAndGlyphs" textLength="76" x="30.5" y="114.3638">To boundary</text><polygon fill="#A80036" points="164.5,144.5625,174.5,148.5625,164.5,152.5625,168.5,148.5625" style="stroke:#A80036;stroke-width:1.0;"/><line style="stroke:#A80036;stroke-width:1.0;" x1="23.5" x2="170.5" y1="148.5625" y2="148.5625"/><text fill="#000000" font-family="sans-serif" font-size="13" lengthAdjust="spacingAndGlyphs" textLength="60" x="30.5" y="143.4966">To control</text><polygon fill="#A80036" points="211.5,173.6953,221.5,177.6953,211.5,181.6953,215.5,177.6953" style="stroke:#A80036;stroke-width:1.0;"/><line style="stroke:#A80036;stroke-width:1.0;" x1="23.5" x2="217.5" y1="177.6953" y2="177.6953"/><text fill="#000000" font-family="sans-serif" font-size="13" lengthAdjust="spacingAndGlyphs" textLength="50" x="30.5" y="172.6294">To entity</text><polygon fill="#A80036" points="258.5,202.8281,268.5,206.8281,258.5,210.8281,262.5,206.8281" style="stroke:#A80036;stroke-width:1.0;"/><line style="stroke:#A80036;stroke-width:1.0;" x1="23.5" x2="264.5" y1="206.8281" y2="206.8281"/><text fill="#000000" font-family="sans-serif" font-size="13" lengthAdjust="spacingAndGlyphs" textLength="72" x="30.5" y="201.7622">To database</text><polygon fill="#A80036" points="313.5,231.9609,323.5,235.9609,313.5,239.9609,317.5,235.9609" style="stroke:#A80036;stroke-width:1.0;"/><line style="stroke:#A80036;stroke-width:1.0;" x1="23.5" x2="319.5" y1="235.9609" y2="235.9609"/><text fill="#000000" font-family="sans-serif" font-size="13" lengthAdjust="spacingAndGlyphs" textLength="80" x="30.5" y="230.895">To collections</text><!--MD5=[9e7cc4093a874d08f58d0ed13d99e362]
@startuml

actor Foo1
boundary Foo2
control Foo3
entity Foo4
database Foo5
collections Foo6
Foo1 -[#red]> Foo2 : To boundary
Foo1 -> Foo3 : To control
Foo1 -> Foo4 : To entity
Foo1 -> Foo5 : To database
Foo1 -> Foo6 : To collections
@enduml

PlantUML version 1.2020.23(Sun Dec 13 19:14:58 GMT 2020)
(GPL source distribution)
Java Runtime: OpenJDK Runtime Environment
JVM: OpenJDK 64-Bit Server VM
Default Encoding: UTF-8
Language: en
Country: US
--></g></svg>